<svg width="22" height="22" viewBox="0 0 22 22" fill="none" xmlns="http://www.w3.org/2000/svg">
<path d="M15.2856 11.1066C15.2856 13.47 13.3668 15.386 10.9999 15.386C8.63301 15.386 6.71423 13.47 6.71423 11.1066C6.71423 8.74309 8.63301 6.82712 10.9999 6.82712C13.3668 6.82712 15.2856 8.74309 15.2856 11.1066ZM15.2856 11.1066V12.5331C15.2856 14.1088 16.5648 15.386 18.1428 15.386C19.1564 15.386 20.0468 14.859 20.5539 14.0643C20.8364 13.6219 20.9999 13.0966 20.9999 12.5331V11.1066C20.9999 5.59184 16.5228 1.12124 10.9999 1.12124C5.47709 1.12124 0.999939 5.59184 0.999939 11.1066C0.999939 16.6214 5.47709 21.092 10.9999 21.092C13.1246 21.092 15.0945 20.4304 16.7143 19.3021" stroke="#7A84A9" stroke-width="1.5" stroke-linecap="round" stroke-linejoin="round"/>
</svg>
