<svg width="29" height="28" viewBox="0 0 29 28" fill="none" xmlns="http://www.w3.org/2000/svg">
<path d="M12.8467 3.03329L5.26335 7.46662C4.91868 7.67342 4.63131 7.96329 4.42751 8.30975C4.22371 8.65621 4.10998 9.04822 4.09669 9.44995V18.4333C4.09558 18.8381 4.20328 19.2357 4.40852 19.5847C4.61377 19.9336 4.90901 20.2209 5.26335 20.4166L12.8467 24.85C13.193 25.0782 13.5986 25.1999 14.0134 25.1999C14.4281 25.1999 14.8337 25.0782 15.18 24.85L22.7634 20.4166C23.108 20.2098 23.3954 19.9199 23.5992 19.5735C23.803 19.227 23.9167 18.835 23.93 18.4333V9.44995C23.9311 9.04515 23.8234 8.6475 23.6182 8.29858C23.4129 7.94967 23.1177 7.66233 22.7634 7.46662L15.18 3.03329C14.8337 2.80503 14.4281 2.68336 14.0134 2.68336C13.5986 2.68336 13.193 2.80503 12.8467 3.03329Z" stroke="#64CB2E" stroke-width="1.5" stroke-linecap="round" stroke-linejoin="round"/>
<path d="M19.8473 10.5L14.014 7L8.18066 10.5L19.8473 17.5L14.014 21L8.18066 17.5" stroke="#64CB2E" stroke-width="1.5" stroke-linecap="round" stroke-linejoin="round"/>
<path d="M13.43 11.6665L11.0967 13.9999" stroke="#64CB2E" stroke-width="1.5" stroke-linecap="round" stroke-linejoin="round"/>
<path d="M16.93 14L14.5967 16.3334" stroke="#64CB2E" stroke-width="1.5" stroke-linecap="round" stroke-linejoin="round"/>
</svg>
