<svg width="28" height="28" viewBox="0 0 28 28" fill="none" xmlns="http://www.w3.org/2000/svg">
<path d="M21.5438 19.6349L21.9988 23.3215C22.0245 23.5373 21.9893 23.756 21.8974 23.9529C21.8054 24.1498 21.6603 24.3171 21.4784 24.436C21.2965 24.5548 21.085 24.6205 20.8677 24.6256C20.6505 24.6307 20.4361 24.575 20.2488 24.4649L16.2121 22.0615C16.0817 21.9817 15.9878 21.8538 15.9507 21.7054C15.9136 21.5571 15.9363 21.4 16.0138 21.2682C16.5991 20.1942 16.9078 18.9913 16.9121 17.7682C16.8523 15.6594 15.9593 13.6602 14.4287 12.2083C12.8981 10.7564 10.8545 9.97007 8.74548 10.0215C7.842 10.0177 6.94382 10.1596 6.08548 10.4415C5.98602 10.4742 5.87963 10.4794 5.77744 10.4568C5.67525 10.4341 5.58104 10.3844 5.50468 10.3128C5.42832 10.2412 5.37263 10.1504 5.34345 10.0499C5.31426 9.9494 5.31266 9.84288 5.33881 9.74154C5.95067 7.56987 7.26741 5.66336 9.08171 4.32217C10.896 2.98098 13.1049 2.28127 15.3605 2.3332C21.0538 2.3332 25.6621 6.6382 25.6621 11.9465C25.6483 13.4655 25.2663 14.9585 24.5491 16.2975C23.8318 17.6365 22.8006 18.7817 21.5438 19.6349Z" fill="#7A84A9"/>
<path d="M15.1668 17.7683C15.1627 19.1221 14.6744 20.4298 13.7902 21.455C13.1706 22.1849 12.3977 22.7692 11.5266 23.1665C10.6555 23.5637 9.70752 23.7641 8.75016 23.7533L5.70516 25.5616C5.58826 25.6311 5.45426 25.6665 5.3183 25.6638C5.18235 25.6611 5.04985 25.6205 4.93579 25.5464C4.82172 25.4724 4.73062 25.368 4.67279 25.2449C4.61495 25.1218 4.59268 24.985 4.6085 24.85L4.90016 22.5516C4.11581 22.023 3.47214 21.3111 3.02491 20.4776C2.57768 19.6441 2.34036 18.7142 2.3335 17.7683C2.34168 16.7781 2.60065 15.8062 3.08621 14.9432C3.57177 14.0802 4.26809 13.3543 5.11016 12.8333C6.19428 12.1326 7.45935 11.7636 8.75016 11.7716C10.3959 11.7172 11.9961 12.3181 13.1991 13.4424C14.4022 14.5668 15.1099 16.1226 15.1668 17.7683Z" fill="#7A84A9"/>
</svg>
