<svg width="24" height="25" viewBox="0 0 24 25" fill="none" xmlns="http://www.w3.org/2000/svg">
<path d="M5.99994 10.1095V8.11246C5.99994 4.80731 6.99994 2.12125 11.9999 2.12125C16.9999 2.12125 17.9999 4.80731 17.9999 8.11246V10.1095" stroke="#7A84A9" stroke-width="1.5" stroke-linecap="round" stroke-linejoin="round"/>
<path d="M14.4999 16.1007C14.4999 16.5945 14.3533 17.0771 14.0786 17.4876C13.8039 17.8982 13.4134 18.2181 12.9566 18.4071C12.4998 18.596 11.9971 18.6454 11.5122 18.5491C11.0272 18.4528 10.5818 18.215 10.2321 17.8659C9.88251 17.5168 9.64441 17.072 9.54795 16.5878C9.45148 16.1035 9.50099 15.6016 9.69021 15.1454C9.87943 14.6893 10.1999 14.2994 10.611 14.0251C11.0221 13.7508 11.5055 13.6044 11.9999 13.6044C12.663 13.6044 13.2988 13.8674 13.7677 14.3356C14.2365 14.8037 14.4999 15.4387 14.4999 16.1007Z" stroke="#7A84A9" stroke-width="1.5" stroke-linecap="round" stroke-linejoin="round"/>
<path d="M16.9999 22.0919H6.99991C2.99991 22.0919 1.99991 21.0934 1.99991 17.0993V15.1022C1.99991 11.108 2.99991 10.1095 6.99991 10.1095H16.9999C20.9999 10.1095 21.9999 11.108 21.9999 15.1022V17.0993C21.9999 21.0934 20.9999 22.0919 16.9999 22.0919Z" stroke="#7A84A9" stroke-width="1.5" stroke-linecap="round" stroke-linejoin="round"/>
</svg>
