<svg width="18" height="22" viewBox="0 0 18 22" fill="none" xmlns="http://www.w3.org/2000/svg">
<path d="M9.00025 9.1066C11.2094 9.1066 13.0002 7.31574 13.0002 5.1066C13.0002 2.89746 11.2094 1.1066 9.00025 1.1066C6.79111 1.1066 5.00024 2.89746 5.00024 5.1066C5.00024 7.31574 6.79111 9.1066 9.00025 9.1066Z" stroke="#7A84A9" stroke-width="1.5"/>
<path d="M16.9975 17.1066C17 16.9424 17 16.7756 17 16.6066C17 14.1213 13.4183 12.1066 9 12.1066C4.58172 12.1066 1 14.1213 1 16.6066C1 19.0919 1 21.1066 9 21.1066C11.231 21.1066 12.8398 20.9499 14 20.67" stroke="#7A84A9" stroke-width="1.5" stroke-linecap="round"/>
</svg>
