<svg width="32" height="27" viewBox="0 0 32 27" fill="none" xmlns="http://www.w3.org/2000/svg">
<path d="M3.78648 26.7597C7.87003 26.7597 10.9388 23.2135 12.7703 20.4113C12.5475 21.0313 12.4237 21.6512 12.4237 22.2464C12.4237 23.8831 13.3642 25.0486 15.2204 25.0486C17.7695 25.0486 20.4918 22.8168 21.9025 20.4113C21.8035 20.7585 21.754 21.0809 21.754 21.3785C21.754 22.5192 22.3975 23.2383 23.7092 23.2383C27.8422 23.2383 31.9999 15.9229 31.9999 9.52504C31.9999 4.54062 29.4756 0.151367 23.14 0.151367C12.0031 0.151367 -6.10352e-05 13.7407 -6.10352e-05 22.5192C-6.10352e-05 25.9661 1.85609 26.7597 3.78648 26.7597ZM19.3039 8.97949C19.3039 7.73959 19.9969 6.87166 21.0115 6.87166C22.0015 6.87166 22.6945 7.73959 22.6945 8.97949C22.6945 10.2194 22.0015 11.1121 21.0115 11.1121C19.9969 11.1121 19.3039 10.2194 19.3039 8.97949ZM24.6001 8.97949C24.6001 7.73959 25.2931 6.87166 26.3077 6.87166C27.2977 6.87166 27.9907 7.73959 27.9907 8.97949C27.9907 10.2194 27.2977 11.1121 26.3077 11.1121C25.2931 11.1121 24.6001 10.2194 24.6001 8.97949Z" fill="#7861FF"/>
</svg>
