<svg width="28" height="29" viewBox="0 0 28 29" fill="none" xmlns="http://www.w3.org/2000/svg">
<g clip-path="url(#clip0_58_1742)">
<path d="M19.8334 25.8429H8.16675C7.93516 25.8414 7.71348 25.7487 7.54972 25.585C7.38595 25.4212 7.29328 25.1995 7.29175 24.9679C7.29328 24.7363 7.38595 24.5147 7.54972 24.3509C7.71348 24.1871 7.93516 24.0945 8.16675 24.0929H19.8334C20.065 24.0945 20.2867 24.1871 20.4504 24.3509C20.6142 24.5147 20.7069 24.7363 20.7084 24.9679C20.7069 25.1995 20.6142 25.4212 20.4504 25.585C20.2867 25.7487 20.065 25.8414 19.8334 25.8429Z" fill="white"/>
<path d="M23.7417 6.61627L19.075 9.95294C18.929 10.0559 18.7615 10.1243 18.5852 10.1528C18.4088 10.1813 18.2283 10.1693 18.0573 10.1175C17.8863 10.0658 17.7294 9.97572 17.5985 9.85421C17.4675 9.73269 17.366 9.58292 17.3017 9.41627L15.0967 3.53744C15.0131 3.31532 14.8639 3.12396 14.6687 2.98888C14.4736 2.85381 14.242 2.78144 14.0047 2.78144C13.7674 2.78144 13.5357 2.85381 13.3406 2.98888C13.1455 3.12396 12.9962 3.31532 12.9127 3.53744L10.696 9.40461C10.6352 9.57269 10.5361 9.72429 10.4065 9.84739C10.2769 9.97049 10.1204 10.0617 9.94946 10.1138C9.77848 10.1659 9.59772 10.1774 9.42152 10.1475C9.24531 10.1175 9.0785 10.0469 8.93433 9.94127L4.26766 6.60461C4.06372 6.46137 3.81954 6.38663 3.57035 6.39117C3.32117 6.39571 3.07988 6.47929 2.88128 6.62986C2.68268 6.78043 2.53706 6.9902 2.46541 7.2289C2.39377 7.4676 2.39981 7.72289 2.48266 7.95794L7.336 21.5496C7.41635 21.7759 7.56507 21.9715 7.76156 22.1095C7.95805 22.2474 8.19258 22.3209 8.43266 22.3196H19.551C19.7905 22.3185 20.024 22.2441 20.22 22.1065C20.4161 21.9689 20.5653 21.7745 20.6477 21.5496L25.501 7.95794C25.5867 7.72567 25.5956 7.47204 25.5265 7.23432C25.4574 6.9966 25.3138 6.7873 25.117 6.63718C24.9201 6.48706 24.6803 6.40402 24.4328 6.40025C24.1852 6.39649 23.943 6.4722 23.7417 6.61627ZM16.9167 17.3846H11.0833C10.8513 17.3846 10.6287 17.2924 10.4646 17.1283C10.3005 16.9642 10.2083 16.7417 10.2083 16.5096C10.2083 16.2775 10.3005 16.055 10.4646 15.8909C10.6287 15.7268 10.8513 15.6346 11.0833 15.6346H16.9167C17.1487 15.6346 17.3713 15.7268 17.5354 15.8909C17.6995 16.055 17.7917 16.2775 17.7917 16.5096C17.7917 16.7417 17.6995 16.9642 17.5354 17.1283C17.3713 17.2924 17.1487 17.3846 16.9167 17.3846Z" fill="white"/>
</g>
<defs>
<clipPath id="clip0_58_1742">
<rect width="28" height="28" fill="white" transform="translate(0 0.17627)"/>
</clipPath>
</defs>
</svg>
