<svg width="28" height="28" viewBox="0 0 28 28" fill="none" xmlns="http://www.w3.org/2000/svg">
<path d="M23.4502 10.7566C21.3385 10.7566 20.4752 9.26327 21.5252 7.43161C21.8167 6.92241 21.8944 6.31841 21.7413 5.752C21.5882 5.18559 21.2168 4.70298 20.7085 4.40994L18.6902 3.25494C18.2445 2.99563 17.7141 2.9237 17.2154 3.05493C16.7167 3.18616 16.2905 3.50983 16.0302 3.95494L15.9018 4.17661C14.8518 6.00827 13.1252 6.00827 12.0635 4.17661L11.9352 3.95494C11.8094 3.73442 11.641 3.54111 11.4399 3.38627C11.2387 3.23142 11.0087 3.11813 10.7634 3.05299C10.518 2.98785 10.2621 2.97216 10.0106 3.00683C9.75916 3.0415 9.51708 3.12584 9.2985 3.25494L7.28016 4.40994C6.77058 4.70478 6.39855 5.18949 6.24549 5.75798C6.09244 6.32647 6.17082 6.93244 6.4635 7.44327C7.52516 9.26327 6.66183 10.7566 4.55016 10.7566C3.96283 10.7585 3.40009 10.9926 2.98478 11.4079C2.56948 11.8232 2.33534 12.3859 2.3335 12.9733V15.0266C2.33534 15.6139 2.56948 16.1767 2.98478 16.592C3.40009 17.0073 3.96283 17.2414 4.55016 17.2433C6.66183 17.2433 7.52516 18.7366 6.4635 20.5683C6.172 21.0775 6.09428 21.6815 6.24736 22.2479C6.40045 22.8143 6.77185 23.2969 7.28016 23.5899L9.2985 24.7449C9.7442 25.0043 10.2746 25.0762 10.7732 24.945C11.2719 24.8137 11.6982 24.4901 11.9585 24.0449L12.0868 23.8233C13.1368 21.9916 14.8635 21.9916 15.9252 23.8233L16.0535 24.0449C16.3138 24.4901 16.7401 24.8137 17.2388 24.945C17.7374 25.0762 18.2678 25.0043 18.7135 24.7449L20.7318 23.5899C21.2401 23.2969 21.6115 22.8143 21.7646 22.2479C21.9177 21.6815 21.84 21.0775 21.5485 20.5683C20.4868 18.7366 21.3502 17.2433 23.4618 17.2433C24.0492 17.2414 24.6119 17.0073 25.0272 16.592C25.4425 16.1767 25.6766 15.6139 25.6785 15.0266V12.9733C25.6721 12.3854 25.4349 11.8235 25.018 11.4088C24.6012 10.9942 24.0381 10.7599 23.4502 10.7566ZM14.0002 17.7916C13.2502 17.7916 12.5172 17.5692 11.8936 17.1526C11.2701 16.736 10.7841 16.1438 10.4971 15.4509C10.2101 14.7581 10.135 13.9957 10.2814 13.2602C10.4277 12.5247 10.7888 11.8491 11.319 11.3188C11.8493 10.7886 12.5249 10.4274 13.2604 10.2811C13.996 10.1348 14.7583 10.2099 15.4512 10.4969C16.144 10.7839 16.7362 11.2699 17.1528 11.8934C17.5695 12.5169 17.7918 13.25 17.7918 13.9999C17.79 15.005 17.3899 15.9683 16.6792 16.679C15.9686 17.3897 15.0052 17.7898 14.0002 17.7916Z" fill="#7A84A9"/>
</svg>
