<svg width="28" height="29" viewBox="0 0 28 29" fill="none" xmlns="http://www.w3.org/2000/svg">
    <g clip-path="url(#clip0_205_132)">
        <path
            d="M19.6002 2.95935H16.5668C15.7537 2.89466 14.9362 3.0072 14.1708 3.2892C13.4054 3.5712 12.7103 4.01595 12.1336 4.59273C11.5568 5.16952 11.112 5.86461 10.83 6.63001C10.548 7.39541 10.4355 8.21289 10.5002 9.02602V13.751H17.7918C18.0239 13.751 18.2465 13.8432 18.4106 14.0073C18.5747 14.1714 18.6668 14.394 18.6668 14.626C18.6668 14.8581 18.5747 15.0806 18.4106 15.2447C18.2465 15.4088 18.0239 15.501 17.7918 15.501H10.5002V20.226C10.4355 21.0392 10.548 21.8566 10.83 22.622C11.112 23.3874 11.5568 24.0825 12.1336 24.6593C12.7103 25.2361 13.4054 25.6808 14.1708 25.9628C14.9362 26.2448 15.7537 26.3574 16.5668 26.2927H19.5885C20.4016 26.3574 21.2191 26.2448 21.9845 25.9628C22.7499 25.6808 23.445 25.2361 24.0218 24.6593C24.5986 24.0825 25.0433 23.3874 25.3253 22.622C25.6073 21.8566 25.7199 21.0392 25.6552 20.226V9.02602C25.7223 8.21335 25.6118 7.39581 25.3314 6.6301C25.051 5.86439 24.6074 5.16884 24.0314 4.59169C23.4553 4.01453 22.7606 3.56959 21.9955 3.28772C21.2303 3.00586 20.413 2.89381 19.6002 2.95935Z"
            fill="#7A84A9" />
        <path
            d="M5.32022 13.751L7.73522 11.336C7.81691 11.2551 7.88168 11.1588 7.92575 11.0526C7.96982 10.9465 7.9923 10.8326 7.99189 10.7177C7.99343 10.6025 7.97147 10.4883 7.92733 10.382C7.8832 10.2757 7.81783 10.1795 7.73522 10.0993C7.57056 9.9366 7.34839 9.84534 7.11689 9.84534C6.88539 9.84534 6.66321 9.9366 6.49855 10.0993L2.59139 14.0077C2.42866 14.1723 2.3374 14.3945 2.3374 14.626C2.3374 14.8575 2.42866 15.0797 2.59139 15.2443L6.49972 19.1527C6.66559 19.3072 6.88498 19.3914 7.11166 19.3874C7.33835 19.3834 7.55463 19.2915 7.71495 19.1312C7.87526 18.9709 7.96709 18.7546 7.97109 18.5279C7.97509 18.3012 7.89095 18.0819 7.73639 17.916L5.32139 15.501H10.5037V13.751H5.32022Z"
            fill="#7A84A9" />
    </g>
    <defs>
        <clipPath id="clip0_205_132">
            <rect width="28" height="28" fill="white" transform="translate(0 0.625977)" />
        </clipPath>
    </defs>
</svg>